<?xml version="1.0" encoding="utf-8"?>
<!-- Generator: Adobe Illustrator 24.0.1, SVG Export Plug-In . SVG Version: 6.00 Build 0)  -->
<svg version="1.1" id="Camada_1" xmlns="http://www.w3.org/2000/svg" xmlns:xlink="http://www.w3.org/1999/xlink" x="0px" y="0px"
	 viewBox="0 0 384 216" style="enable-background:new 0 0 384 216;" xml:space="preserve">
<style type="text/css">
	.st0{enable-background:new    ;}
	.st1{fill:#fff;}
	.st2{fill:none;stroke:#fff;stroke-miterlimit:10;}
	.st3{fill:none;stroke:#fff;stroke-width:1;stroke-miterlimit:9.9999;}
</style>
<g class="st0">
	<path class="st1" d="M192.2,34.8c-9-3.1-19.9-4.5-30.2-3.6c-16.4,1.6-31.1,14.2-33.9,29.7c-1.2,6.7-0.5,14.4,5.4,16.4
		c-0.3-1.5-0.5-3.1-0.5-4.7c-0.3-6.7,2.7-18,10.1-25.7c14.2-14.8,27.8-8.8,20.8,9.3c-3.3,8.7-10.6,18.1-20.4,21.5
		c-1.9,0.6-3.6,1.1-5.2,1.3c3,21.5,23.8,24.6,32.9,13.9c1-1.2,1.3-0.6,0.5,0.4C162,105,139.6,102,134,79.2
		c-10.8-0.6-13.8-11.4-11.3-20.7c4.7-17.8,21.1-27.7,39.1-29.1c9.9-0.7,21.5,1.3,31.3,4.9c5.2-2.6,10.8-3.4,15.5-2.4
		c3.5,0.7,6.6,2.8,6.5,6.6c-0.1,2.6-2.4,5.8-5.6,5.8c-2.1,0-3.5-1.3-3.2-3c0.2-1.7,2.3-3,4.3-3c0.5,0,1,0.1,1.4,0.2
		c1.6-2.9-0.4-4.7-3-5.4c-4.2-1.1-9.4,1-14.5,4.3c-8.8,5.7-18.8,18.3-22.1,30.2c-5.1,18.5,9.3,22.1,24.6,12.4
		c5.8-3.7,10.9-9.6,14.8-15.5c0.4-0.6,1-0.2,0.6,0.3c-4.3,6.6-8.9,11.9-14.6,15.9c-5.8,4-12.7,6.6-17.9,6.3
		c-10-0.5-16-7.6-13.8-18.8c2.5-12.7,15.1-27.5,25.7-33.2C192,34.9,192.1,34.8,192.2,34.8z M138,77.7c0.9-0.1,2-0.2,3-0.6
		c11.7-3,18.3-13.3,21.5-21.1c5.9-14.1-1.7-22.2-14-8.6C140.9,55.8,136.9,68.4,138,77.7z"/>
</g>
<g class="st0">
	<path class="st2" d="M192.2,34.8c-9-3.1-19.9-4.5-30.2-3.6c-16.4,1.6-31.1,14.2-33.9,29.7c-1.2,6.7-0.5,14.4,5.4,16.4
		c-0.3-1.5-0.5-3.1-0.5-4.7c-0.3-6.7,2.7-18,10.1-25.7c14.2-14.8,27.8-8.8,20.8,9.3c-3.3,8.7-10.6,18.1-20.4,21.5
		c-1.9,0.6-3.6,1.1-5.2,1.3c3,21.5,23.8,24.6,32.9,13.9c1-1.2,1.3-0.6,0.5,0.4C162,105,139.6,102,134,79.2
		c-10.8-0.6-13.8-11.4-11.3-20.7c4.7-17.8,21.1-27.7,39.1-29.1c9.9-0.7,21.5,1.3,31.3,4.9c5.2-2.6,10.8-3.4,15.5-2.4
		c3.5,0.7,6.6,2.8,6.5,6.6c-0.1,2.6-2.4,5.8-5.6,5.8c-2.1,0-3.5-1.3-3.2-3c0.2-1.7,2.3-3,4.3-3c0.5,0,1,0.1,1.4,0.2
		c1.6-2.9-0.4-4.7-3-5.4c-4.2-1.1-9.4,1-14.5,4.3c-8.8,5.7-18.8,18.3-22.1,30.2c-5.1,18.5,9.3,22.1,24.6,12.4
		c5.8-3.7,10.9-9.6,14.8-15.5c0.4-0.6,1-0.2,0.6,0.3c-4.3,6.6-8.9,11.9-14.6,15.9c-5.8,4-12.7,6.6-17.9,6.3
		c-10-0.5-16-7.6-13.8-18.8c2.5-12.7,15.1-27.5,25.7-33.2C192,34.9,192.1,34.8,192.2,34.8z M138,77.7c0.9-0.1,2-0.2,3-0.6
		c11.7-3,18.3-13.3,21.5-21.1c5.9-14.1-1.7-22.2-14-8.6C140.9,55.8,136.9,68.4,138,77.7z"/>
</g>
<g class="st0">
	<path class="st1" d="M192.8,112.4c-4.8-11.9-4.6-29,8-36c8.4-4.6,17.5,2.5,22.2,10.7c9.6,16.7,2.1,34.4-10.8,27.8
		c-6.9-3.8-10.9-11.4-11.5-19.2c-0.4-5.2,3.3-4.5,3.3-0.7c-0.1,6.8,2.7,14.9,9.3,19c11.3,7,17.9-11.7,8.8-26.3
		c-4.1-7.1-13.4-15.2-21.2-9.9c-8.7,5.9-7.8,19.3-4.5,28.9c4.3,12.3,17.9,28,30.4,15.3c6.3-6.3,9.5-18.6,5.3-32.3
		c-4.5-14.6-20.4-19.8-21-32.6c-0.1-2.1-0.2-4.9,3.2-8.6c2.3-2.5,6.4-3.6,9.1-1.3c1.9,1.5,2.9,5.2,1.1,7.6c-1.2,1.6-3,2-4.2,0.8
		c-1.1-1.1-0.9-3.5,0.3-5c0.3-0.4,0.6-0.7,1-0.9c-1.3-2.9-4.3-2.6-6.2-0.9c-3,2.8-2.5,5-1.9,7.3c2.6,10.5,17.5,13.8,22.2,30.2
		c3.3,11.4,0,26-6.4,34.4C216.1,138.3,198.7,127,192.8,112.4z"/>
</g>
<g class="st0">
	<path class="st3" d="M192.8,112.4c-4.8-11.9-4.6-29,8-36c8.4-4.6,17.5,2.5,22.2,10.7c9.6,16.7,2.1,34.4-10.8,27.8
		c-6.9-3.8-10.9-11.4-11.5-19.2c-0.4-5.2,3.3-4.5,3.3-0.7c-0.1,6.8,2.7,14.9,9.3,19c11.3,7,17.9-11.7,8.8-26.3
		c-4.1-7.1-13.4-15.2-21.2-9.9c-8.7,5.9-7.8,19.3-4.5,28.9c4.3,12.3,17.9,28,30.4,15.3c6.3-6.3,9.5-18.6,5.3-32.3
		c-4.5-14.6-20.4-19.8-21-32.6c-0.1-2.1-0.2-4.9,3.2-8.6c2.3-2.5,6.4-3.6,9.1-1.3c1.9,1.5,2.9,5.2,1.1,7.6c-1.2,1.6-3,2-4.2,0.8
		c-1.1-1.1-0.9-3.5,0.3-5c0.3-0.4,0.6-0.7,1-0.9c-1.3-2.9-4.3-2.6-6.2-0.9c-3,2.8-2.5,5-1.9,7.3c2.6,10.5,17.5,13.8,22.2,30.2
		c3.3,11.4,0,26-6.4,34.4C216.1,138.3,198.7,127,192.8,112.4z"/>
</g>
<g class="st0">
	<path class="st1" d="M39.2,136.6l0.4,6.2h-0.4c-0.3-0.9-0.6-1.7-1-2.4c-0.4-0.7-0.8-1.2-1.4-1.6c-0.5-0.4-1.1-0.7-1.7-0.9
		c-0.6-0.2-1.3-0.3-2-0.3c-1.2,0-2.3,0.3-3.2,0.9c-0.9,0.6-1.7,1.5-2.2,2.7c-0.3,0.7-0.5,1.4-0.7,2.3s-0.2,1.8-0.2,2.9
		c0,1.6,0.3,3,0.8,4.3c0.3,0.6,0.6,1.2,1,1.6s0.9,0.8,1.4,1.2c0.5,0.3,1.1,0.5,1.7,0.7s1.2,0.2,1.9,0.2c0.7,0,1.4-0.1,1.9-0.2
		s1-0.4,1.5-0.7s0.9-0.7,1.3-1.2c0.4-0.5,0.9-1,1.4-1.7l0.4,0.3c-0.5,0.8-0.9,1.5-1.5,2.1c-0.5,0.6-1.1,1.1-1.7,1.5
		c-0.6,0.4-1.3,0.7-2,0.8c-0.7,0.2-1.5,0.3-2.3,0.3c-3,0-5.3-1.1-7-3.3c-1.2-1.7-1.8-3.6-1.8-5.8c0-1.1,0.1-2.1,0.4-3.1
		c0.3-1,0.7-1.9,1.4-2.8c0.4-0.6,0.9-1.1,1.5-1.6c0.5-0.5,1.1-0.9,1.8-1.2c0.6-0.3,1.3-0.6,2-0.7c0.7-0.2,1.4-0.3,2.2-0.3
		c1.3,0,2.6,0.3,3.9,1c0.4,0.2,0.7,0.3,0.8,0.3c0.3,0,0.5-0.1,0.7-0.4c0.2-0.2,0.3-0.5,0.4-0.9H39.2z"/>
	<path class="st1" d="M46.6,145.4H55v-5.2c0-0.4,0-0.8,0-1c0-0.3-0.1-0.5-0.1-0.7c0-0.2-0.1-0.3-0.2-0.4c-0.1-0.1-0.2-0.2-0.4-0.3
		c-0.4-0.2-0.8-0.3-1.2-0.3h-0.6V137h7.8l0,0.5h-0.6c-0.2,0-0.3,0-0.5,0.1s-0.4,0.1-0.5,0.2s-0.3,0.2-0.4,0.3
		c-0.1,0.1-0.2,0.3-0.3,0.4c-0.1,0.3-0.1,0.9-0.1,1.8v11.7c0,0.4,0,0.8,0,1c0,0.3,0.1,0.5,0.1,0.7c0,0.2,0.1,0.3,0.2,0.4
		c0.1,0.1,0.2,0.2,0.4,0.3c0.4,0.2,0.8,0.3,1.2,0.3h0.6v0.5h-7.7v-0.5h0.6c0.7,0,1.3-0.2,1.6-0.7c0.2-0.3,0.3-1,0.3-2.1v-5.5h-8.4
		v5.5c0,0.4,0,0.8,0,1c0,0.3,0.1,0.5,0.1,0.7s0.1,0.3,0.2,0.4c0.1,0.1,0.2,0.2,0.4,0.3c0.4,0.2,0.8,0.3,1.2,0.3h0.7v0.5h-7.8v-0.5
		h0.6c0.8,0,1.3-0.2,1.6-0.7c0.2-0.3,0.3-1,0.3-2.1v-11.7c0-0.4,0-0.8,0-1c0-0.3-0.1-0.5-0.1-0.7c0-0.2-0.1-0.3-0.2-0.4
		c-0.1-0.1-0.2-0.2-0.4-0.3c-0.4-0.2-0.8-0.3-1.2-0.3h-0.6V137h7.8v0.5h-0.7c-0.2,0-0.4,0-0.5,0.1s-0.4,0.1-0.5,0.2
		s-0.3,0.2-0.4,0.3c-0.1,0.1-0.2,0.3-0.3,0.4c-0.1,0.3-0.2,0.9-0.2,1.8V145.4z"/>
	<path class="st1" d="M73.2,149h-7l-1.2,2.9c-0.3,0.7-0.5,1.2-0.5,1.6c0,0.1,0,0.3,0.1,0.4s0.1,0.2,0.3,0.3c0.2,0.1,0.4,0.2,0.6,0.3
		c0.3,0.1,0.6,0.1,1.1,0.2v0.5h-5.7v-0.5c0.7-0.1,1.2-0.3,1.5-0.5c0.2-0.2,0.5-0.5,0.7-1c0.2-0.4,0.5-1,0.8-1.6l6.4-14.9h0.5
		l6.3,15.1c0.3,0.6,0.5,1.1,0.7,1.5c0.2,0.4,0.4,0.7,0.7,0.9c0.2,0.2,0.5,0.4,0.8,0.4c0.3,0.1,0.6,0.1,1,0.1v0.5H73v-0.5
		c0.4,0,0.7-0.1,0.9-0.1s0.4-0.1,0.6-0.2c0.1-0.1,0.2-0.2,0.3-0.3s0.1-0.3,0.1-0.4c0-0.2,0-0.4-0.1-0.8c-0.1-0.3-0.2-0.7-0.4-1.1
		L73.2,149z M72.9,148l-3.1-7.3l-3.2,7.3H72.9z"/>
	<path class="st1" d="M99,155.1h-4.8l-6.1-8.5c-0.2,0-0.4,0-0.6,0c-0.2,0-0.3,0-0.5,0c-0.1,0-0.2,0-0.4,0c-0.1,0-0.3,0-0.4,0v5.3
		c0,1.1,0.1,1.8,0.4,2.1c0.3,0.4,0.8,0.6,1.5,0.6h0.7v0.5H81v-0.5h0.7c0.8,0,1.3-0.2,1.6-0.7c0.2-0.3,0.3-0.9,0.3-2v-11.7
		c0-1.1-0.1-1.8-0.4-2.1c-0.3-0.4-0.9-0.6-1.5-0.6H81V137h6.6c1.9,0,3.3,0.1,4.2,0.4c0.5,0.1,0.9,0.3,1.3,0.6c0.4,0.3,0.7,0.6,1,0.9
		s0.5,0.8,0.7,1.2c0.2,0.5,0.3,0.9,0.3,1.5c0,0.6-0.1,1.1-0.3,1.6s-0.5,0.9-0.8,1.3c-0.4,0.4-0.8,0.7-1.4,1c-0.6,0.3-1.2,0.5-2,0.7
		l3.7,5.2c0.9,1.2,1.6,2,2.2,2.4c0.6,0.4,1.4,0.6,2.4,0.7V155.1z M86.1,145.8c0.2,0,0.3,0,0.4,0c0.1,0,0.2,0,0.3,0
		c0.9,0,1.6-0.1,2.3-0.3c0.7-0.2,1.2-0.5,1.6-0.8s0.8-0.8,1-1.3c0.2-0.5,0.3-1,0.3-1.6c0-0.6-0.1-1.1-0.3-1.5
		c-0.2-0.5-0.5-0.9-0.8-1.2c-0.3-0.3-0.8-0.6-1.2-0.8c-0.5-0.2-1-0.3-1.6-0.3c-0.3,0-0.6,0-0.9,0.1s-0.7,0.1-1.2,0.2V145.8z"/>
	<path class="st1" d="M114.4,150.1l0.4,0.1l-1.5,4.9h-14v-0.5h0.7c0.8,0,1.3-0.2,1.6-0.7c0.2-0.3,0.3-0.9,0.3-2v-11.7
		c0-1.1-0.1-1.8-0.4-2.1c-0.3-0.4-0.9-0.6-1.5-0.6h-0.7V137h8.2v0.5c-0.5,0-0.9,0-1.2,0.1c-0.3,0-0.6,0.1-0.8,0.2
		c-0.2,0.1-0.4,0.2-0.5,0.3s-0.2,0.3-0.3,0.4c-0.1,0.3-0.2,1-0.2,2v11.4c0,0.3,0,0.6,0,0.8c0,0.2,0.1,0.4,0.1,0.6
		c0.1,0.1,0.1,0.3,0.2,0.4c0.1,0.1,0.2,0.2,0.3,0.2c0.2,0.1,0.9,0.1,2.1,0.1h1.3c1.4,0,2.4-0.1,2.9-0.3c0.3-0.1,0.6-0.2,0.8-0.4
		c0.2-0.2,0.5-0.4,0.7-0.7c0.2-0.3,0.5-0.6,0.7-1S114.2,150.6,114.4,150.1z"/>
	<path class="st1" d="M123.9,154.6v0.5h-7.8v-0.5h0.6c0.8,0,1.3-0.2,1.6-0.7c0.2-0.3,0.3-1,0.3-2.1v-11.7c0-0.4,0-0.8,0-1
		c0-0.3-0.1-0.5-0.1-0.7c0-0.2-0.1-0.3-0.2-0.4c-0.1-0.1-0.2-0.2-0.4-0.3c-0.4-0.2-0.8-0.3-1.2-0.3h-0.6V137h7.8v0.5h-0.7
		c-0.7,0-1.3,0.2-1.6,0.7c-0.2,0.3-0.3,1-0.3,2.1v11.7c0,0.4,0,0.8,0,1c0,0.3,0.1,0.5,0.1,0.7c0,0.2,0.1,0.3,0.2,0.4
		s0.2,0.2,0.4,0.3c0.4,0.2,0.8,0.3,1.2,0.3H123.9z"/>
	<path class="st1" d="M137.1,149h-7l-1.2,2.9c-0.3,0.7-0.5,1.2-0.5,1.6c0,0.1,0,0.3,0.1,0.4s0.1,0.2,0.3,0.3
		c0.2,0.1,0.4,0.2,0.6,0.3c0.3,0.1,0.6,0.1,1.1,0.2v0.5h-5.7v-0.5c0.7-0.1,1.2-0.3,1.5-0.5c0.2-0.2,0.5-0.5,0.7-1
		c0.2-0.4,0.5-1,0.8-1.6l6.4-14.9h0.5l6.3,15.1c0.3,0.6,0.5,1.1,0.7,1.5c0.2,0.4,0.4,0.7,0.7,0.9c0.2,0.2,0.5,0.4,0.8,0.4
		c0.3,0.1,0.6,0.1,1,0.1v0.5h-7.1v-0.5c0.4,0,0.7-0.1,0.9-0.1s0.4-0.1,0.6-0.2c0.1-0.1,0.2-0.2,0.3-0.3s0.1-0.3,0.1-0.4
		c0-0.2,0-0.4-0.1-0.8c-0.1-0.3-0.2-0.7-0.4-1.1L137.1,149z M136.7,148l-3.1-7.3l-3.2,7.3H136.7z"/>
	<path class="st1" d="M143.9,137h4.9l11.1,13.6v-10.4c0-1.1-0.1-1.8-0.4-2.1c-0.3-0.4-0.9-0.6-1.6-0.6h-0.6V137h6.3v0.5H163
		c-0.8,0-1.3,0.2-1.6,0.7c-0.2,0.3-0.3,0.9-0.3,2v15.3h-0.5l-11.9-14.6v11.2c0,1.1,0.1,1.8,0.4,2.1c0.3,0.4,0.9,0.6,1.6,0.6h0.6v0.5
		h-6.3v-0.5h0.6c0.8,0,1.3-0.2,1.6-0.7c0.2-0.3,0.3-0.9,0.3-2v-12.6c-0.3-0.3-0.5-0.6-0.7-0.7c-0.2-0.2-0.3-0.3-0.5-0.5
		c-0.2-0.1-0.3-0.2-0.5-0.3s-0.4-0.2-0.7-0.3c-0.3-0.1-0.6-0.1-1.2-0.1V137z"/>
	<path class="st1" d="M169.8,138v7.2h4c0.6,0,1-0.1,1.4-0.2c0.4-0.1,0.6-0.3,0.8-0.5c0.2-0.2,0.3-0.5,0.4-0.8
		c0.1-0.3,0.1-0.7,0.2-1.2h0.5v6.3h-0.5c-0.1-0.4-0.1-0.8-0.2-1.1c-0.1-0.3-0.1-0.5-0.2-0.6c-0.1-0.2-0.2-0.3-0.3-0.4
		c-0.1-0.1-0.3-0.2-0.5-0.3c-0.2-0.1-0.4-0.2-0.7-0.2c-0.3,0-0.6-0.1-1-0.1h-4v6c0,0.8,0,1.3,0.1,1.5c0,0.1,0.1,0.2,0.1,0.2
		c0.1,0.1,0.1,0.1,0.2,0.2c0.1,0,0.2,0.1,0.4,0.1c0.2,0,0.4,0,0.6,0h3.1c0.5,0,1,0,1.3,0c0.4,0,0.7-0.1,0.9-0.2
		c0.3-0.1,0.5-0.2,0.7-0.3s0.4-0.3,0.6-0.5c0.3-0.3,0.6-0.6,0.8-1c0.3-0.4,0.6-0.9,0.9-1.5h0.5l-1.6,4.5h-14v-0.5h0.6
		c0.2,0,0.3,0,0.5-0.1c0.2,0,0.4-0.1,0.5-0.2c0.2-0.1,0.3-0.2,0.4-0.3c0.1-0.1,0.2-0.3,0.3-0.4c0.1-0.3,0.2-0.9,0.2-1.8v-11.8
		c0-1.1-0.1-1.8-0.3-2.1c-0.3-0.4-0.9-0.5-1.6-0.5h-0.6V137h14v4h-0.3c-0.1-0.5-0.2-0.9-0.3-1.2c-0.1-0.3-0.2-0.6-0.3-0.8
		c-0.1-0.2-0.3-0.4-0.4-0.5c-0.2-0.1-0.4-0.2-0.6-0.3c-0.4-0.1-1-0.2-1.9-0.2H169.8z"/>
	<path class="st1" d="M198.8,155.1l-7-15.2v12.1c0,1.1,0.1,1.8,0.4,2.1c0.3,0.4,0.9,0.6,1.6,0.6h0.6v0.5h-6.3v-0.5h0.6
		c0.8,0,1.3-0.2,1.6-0.7c0.2-0.3,0.3-0.9,0.3-2v-11.8c0-0.8-0.1-1.4-0.3-1.7c-0.1-0.1-0.1-0.3-0.3-0.4s-0.3-0.2-0.4-0.3
		c-0.2-0.1-0.4-0.1-0.7-0.2c-0.3,0-0.6-0.1-0.9-0.1V137h5.1l6.6,14.2l6.5-14.2h5.1v0.5h-0.6c-0.8,0-1.3,0.2-1.6,0.7
		c-0.2,0.3-0.3,0.9-0.3,2v11.8c0,1.1,0.1,1.8,0.4,2.1c0.3,0.4,0.9,0.6,1.6,0.6h0.6v0.5h-7.7v-0.5h0.6c0.8,0,1.3-0.2,1.6-0.7
		c0.2-0.3,0.3-0.9,0.3-2v-12.1l-7,15.2H198.8z"/>
	<path class="st1" d="M224.4,149h-7l-1.2,2.9c-0.3,0.7-0.5,1.2-0.5,1.6c0,0.1,0,0.3,0.1,0.4c0,0.1,0.1,0.2,0.3,0.3
		c0.2,0.1,0.4,0.2,0.6,0.3c0.3,0.1,0.6,0.1,1.1,0.2v0.5h-5.7v-0.5c0.7-0.1,1.2-0.3,1.5-0.5c0.2-0.2,0.5-0.5,0.7-1
		c0.2-0.4,0.5-1,0.8-1.6l6.4-14.9h0.5l6.3,15.1c0.3,0.6,0.5,1.1,0.7,1.5c0.2,0.4,0.4,0.7,0.7,0.9c0.2,0.2,0.5,0.4,0.8,0.4
		c0.3,0.1,0.6,0.1,1,0.1v0.5h-7.1v-0.5c0.4,0,0.7-0.1,0.9-0.1s0.4-0.1,0.6-0.2s0.2-0.2,0.3-0.3c0.1-0.1,0.1-0.3,0.1-0.4
		c0-0.2,0-0.4-0.1-0.8c-0.1-0.3-0.2-0.7-0.4-1.1L224.4,149z M224.1,148l-3.1-7.3l-3.2,7.3H224.1z"/>
	<path class="st1" d="M250.2,155.1h-4.8l-6.1-8.5c-0.2,0-0.4,0-0.6,0c-0.2,0-0.3,0-0.5,0c-0.1,0-0.2,0-0.4,0c-0.1,0-0.3,0-0.4,0v5.3
		c0,1.1,0.1,1.8,0.4,2.1c0.3,0.4,0.8,0.6,1.5,0.6h0.7v0.5h-7.8v-0.5h0.7c0.8,0,1.3-0.2,1.6-0.7c0.2-0.3,0.3-0.9,0.3-2v-11.7
		c0-1.1-0.1-1.8-0.4-2.1c-0.3-0.4-0.9-0.6-1.5-0.6h-0.7V137h6.6c1.9,0,3.3,0.1,4.2,0.4c0.5,0.1,0.9,0.3,1.3,0.6
		c0.4,0.3,0.7,0.6,1,0.9c0.3,0.4,0.5,0.8,0.7,1.2c0.2,0.5,0.3,0.9,0.3,1.5c0,0.6-0.1,1.1-0.3,1.6c-0.2,0.5-0.5,0.9-0.8,1.3
		c-0.4,0.4-0.8,0.7-1.4,1c-0.6,0.3-1.2,0.5-2,0.7l3.7,5.2c0.9,1.2,1.6,2,2.2,2.4c0.6,0.4,1.4,0.6,2.4,0.7V155.1z M237.3,145.8
		c0.2,0,0.3,0,0.4,0c0.1,0,0.2,0,0.3,0c0.9,0,1.6-0.1,2.3-0.3s1.2-0.5,1.6-0.8c0.4-0.4,0.8-0.8,1-1.3c0.2-0.5,0.3-1,0.3-1.6
		c0-0.6-0.1-1.1-0.3-1.5c-0.2-0.5-0.5-0.9-0.8-1.2c-0.3-0.3-0.8-0.6-1.2-0.8c-0.5-0.2-1-0.3-1.6-0.3c-0.3,0-0.6,0-0.9,0.1
		c-0.3,0-0.7,0.1-1.2,0.2V145.8z"/>
	<path class="st1" d="M258.4,154.6v0.5h-7.8v-0.5h0.6c0.8,0,1.3-0.2,1.6-0.7c0.2-0.3,0.3-1,0.3-2.1v-11.7c0-0.4,0-0.8,0-1
		c0-0.3-0.1-0.5-0.1-0.7c0-0.2-0.1-0.3-0.2-0.4c-0.1-0.1-0.2-0.2-0.4-0.3c-0.4-0.2-0.8-0.3-1.2-0.3h-0.6V137h7.8v0.5h-0.7
		c-0.7,0-1.3,0.2-1.6,0.7c-0.2,0.3-0.3,1-0.3,2.1v11.7c0,0.4,0,0.8,0,1c0,0.3,0.1,0.5,0.1,0.7s0.1,0.3,0.2,0.4s0.2,0.2,0.4,0.3
		c0.4,0.2,0.8,0.3,1.2,0.3H258.4z"/>
	<path class="st1" d="M271.5,149h-7l-1.2,2.9c-0.3,0.7-0.5,1.2-0.5,1.6c0,0.1,0,0.3,0.1,0.4c0,0.1,0.1,0.2,0.3,0.3s0.4,0.2,0.6,0.3
		c0.3,0.1,0.6,0.1,1.1,0.2v0.5h-5.7v-0.5c0.7-0.1,1.2-0.3,1.5-0.5c0.2-0.2,0.5-0.5,0.7-1s0.5-1,0.8-1.6l6.4-14.9h0.5l6.3,15.1
		c0.3,0.6,0.5,1.1,0.7,1.5c0.2,0.4,0.4,0.7,0.7,0.9s0.5,0.4,0.8,0.4c0.3,0.1,0.6,0.1,1,0.1v0.5h-7.1v-0.5c0.4,0,0.7-0.1,0.9-0.1
		s0.4-0.1,0.6-0.2c0.1-0.1,0.2-0.2,0.3-0.3s0.1-0.3,0.1-0.4c0-0.2,0-0.4-0.1-0.8c-0.1-0.3-0.2-0.7-0.4-1.1L271.5,149z M271.2,148
		l-3.1-7.3l-3.2,7.3H271.2z"/>
	<path class="st1" d="M296.6,136.6v6.3h-0.5c-0.2-1.2-0.5-2.2-0.9-2.9c-0.2-0.4-0.5-0.7-0.8-1c-0.3-0.3-0.6-0.5-1-0.7
		s-0.7-0.4-1.1-0.5c-0.4-0.1-0.8-0.2-1.2-0.2c-0.5,0-0.9,0.1-1.3,0.2c-0.4,0.2-0.7,0.4-1,0.6c-0.3,0.3-0.5,0.6-0.7,0.9
		s-0.2,0.7-0.2,1c0,0.5,0.1,0.9,0.3,1.3c0.2,0.4,0.5,0.7,1,1s0.9,0.6,1.4,0.9c0.5,0.3,1.1,0.6,1.8,0.9c0.7,0.4,1.4,0.8,2.1,1.1
		c0.6,0.4,1.2,0.8,1.7,1.2s0.9,0.9,1.2,1.5c0.3,0.6,0.4,1.2,0.4,2c0,0.7-0.1,1.3-0.4,1.9c-0.3,0.6-0.7,1.1-1.2,1.6
		c-0.5,0.5-1.1,0.8-1.8,1.1s-1.5,0.4-2.3,0.4c-0.3,0-0.6,0-0.8,0s-0.4,0-0.6-0.1s-0.4-0.1-0.6-0.1c-0.2-0.1-0.5-0.2-0.8-0.3
		c-0.2-0.1-0.4-0.2-0.7-0.2c-0.2-0.1-0.4-0.1-0.6-0.2c-0.2,0-0.3-0.1-0.5-0.1c-0.1,0-0.2,0-0.2,0c-0.2,0-0.4,0.1-0.5,0.2
		s-0.2,0.4-0.3,0.8H286v-6.2h0.5c0.1,0.6,0.3,1.2,0.4,1.7c0.2,0.5,0.3,0.9,0.5,1.2c0.2,0.3,0.4,0.6,0.8,0.9s0.7,0.5,1,0.7
		c0.4,0.2,0.8,0.4,1.3,0.5c0.5,0.1,0.9,0.2,1.4,0.2c0.6,0,1.1-0.1,1.5-0.2s0.8-0.4,1.1-0.6c0.3-0.3,0.5-0.6,0.7-0.9
		c0.2-0.4,0.2-0.7,0.2-1.1c0-0.6-0.1-1.1-0.4-1.5c-0.2-0.4-0.6-0.8-1-1.1c-0.4-0.3-0.9-0.6-1.4-0.9c-0.5-0.3-1.1-0.6-1.7-1
		c-0.7-0.4-1.3-0.8-2-1.1c-0.6-0.4-1.2-0.8-1.7-1.2s-0.9-0.9-1.2-1.5c-0.3-0.6-0.4-1.2-0.4-2c0-0.6,0.1-1.3,0.4-1.8
		c0.3-0.6,0.6-1.1,1.1-1.5s1-0.8,1.7-1s1.4-0.4,2.1-0.4c0.9,0,2,0.2,3.1,0.7c0.5,0.2,0.8,0.3,1.1,0.3c0.2,0,0.4-0.1,0.6-0.2
		c0.1-0.1,0.3-0.4,0.4-0.8H296.6z"/>
	<path class="st1" d="M307.8,154.6v0.5H300v-0.5h0.6c0.8,0,1.3-0.2,1.6-0.7c0.2-0.3,0.3-1,0.3-2.1v-11.7c0-0.4,0-0.8,0-1
		c0-0.3-0.1-0.5-0.1-0.7c0-0.2-0.1-0.3-0.2-0.4c-0.1-0.1-0.2-0.2-0.4-0.3c-0.4-0.2-0.8-0.3-1.2-0.3H300V137h7.8v0.5h-0.7
		c-0.7,0-1.3,0.2-1.6,0.7c-0.2,0.3-0.3,1-0.3,2.1v11.7c0,0.4,0,0.8,0,1c0,0.3,0.1,0.5,0.1,0.7s0.1,0.3,0.2,0.4s0.2,0.2,0.4,0.3
		c0.4,0.2,0.8,0.3,1.2,0.3H307.8z"/>
	<path class="st1" d="M324.1,150.1l0.4,0.1l-1.5,4.9h-14v-0.5h0.7c0.8,0,1.3-0.2,1.6-0.7c0.2-0.3,0.3-0.9,0.3-2v-11.7
		c0-1.1-0.1-1.8-0.4-2.1c-0.3-0.4-0.9-0.6-1.5-0.6H309V137h8.2v0.5c-0.5,0-0.9,0-1.2,0.1c-0.3,0-0.6,0.1-0.8,0.2s-0.4,0.2-0.5,0.3
		s-0.2,0.3-0.3,0.4c-0.1,0.3-0.2,1-0.2,2v11.4c0,0.3,0,0.6,0,0.8c0,0.2,0.1,0.4,0.1,0.6c0.1,0.1,0.1,0.3,0.2,0.4
		c0.1,0.1,0.2,0.2,0.3,0.2c0.2,0.1,0.9,0.1,2.1,0.1h1.3c1.4,0,2.4-0.1,2.9-0.3c0.3-0.1,0.6-0.2,0.8-0.4s0.5-0.4,0.7-0.7
		c0.2-0.3,0.5-0.6,0.7-1C323.6,151.1,323.9,150.6,324.1,150.1z"/>
	<path class="st1" d="M342,137v0.5c-0.4,0.1-0.7,0.2-1,0.3c-0.3,0.1-0.5,0.3-0.7,0.5s-0.4,0.5-0.5,0.8c-0.2,0.3-0.3,0.6-0.5,1
		l-6.3,15.4h-0.5l-6.8-15.6c-0.4-0.8-0.6-1.3-0.7-1.5c-0.2-0.3-0.5-0.5-0.8-0.6c-0.3-0.2-0.8-0.3-1.3-0.3V137h7.4v0.5
		c-0.4,0-0.8,0.1-1,0.2s-0.5,0.2-0.6,0.3c-0.1,0.1-0.2,0.2-0.3,0.3c0,0.1-0.1,0.3-0.1,0.4c0,0.5,0.2,1.1,0.6,2.1l4.6,10.6l4.3-10.5
		c0.4-1,0.6-1.8,0.6-2.2c0-0.3-0.1-0.5-0.4-0.8c-0.3-0.2-0.8-0.4-1.5-0.5V137H342z"/>
	<path class="st1" d="M351.4,149h-7l-1.2,2.9c-0.3,0.7-0.5,1.2-0.5,1.6c0,0.1,0,0.3,0.1,0.4c0,0.1,0.1,0.2,0.3,0.3s0.4,0.2,0.6,0.3
		c0.3,0.1,0.6,0.1,1.1,0.2v0.5h-5.7v-0.5c0.7-0.1,1.2-0.3,1.5-0.5c0.2-0.2,0.5-0.5,0.7-1s0.5-1,0.8-1.6l6.4-14.9h0.5l6.3,15.1
		c0.3,0.6,0.5,1.1,0.7,1.5c0.2,0.4,0.4,0.7,0.7,0.9s0.5,0.4,0.8,0.4c0.3,0.1,0.6,0.1,1,0.1v0.5h-7.1v-0.5c0.4,0,0.7-0.1,0.9-0.1
		s0.4-0.1,0.6-0.2c0.1-0.1,0.2-0.2,0.3-0.3s0.1-0.3,0.1-0.4c0-0.2,0-0.4-0.1-0.8c-0.1-0.3-0.2-0.7-0.4-1.1L351.4,149z M351,148
		l-3.1-7.3l-3.2,7.3H351z"/>
</g>
<g class="st0">
	<path class="st1" d="M140.1,182.6h-5.2l-0.9,2.1c-0.2,0.5-0.3,0.9-0.3,1.2c0,0.1,0,0.2,0.1,0.3s0.1,0.2,0.2,0.2
		c0.1,0.1,0.3,0.1,0.5,0.2c0.2,0,0.5,0.1,0.8,0.1v0.4h-4.3v-0.4c0.6-0.1,0.9-0.2,1.1-0.4c0.2-0.2,0.4-0.4,0.5-0.7s0.4-0.7,0.6-1.2
		l4.8-11.1h0.3l4.7,11.3c0.2,0.5,0.4,0.8,0.5,1.1c0.2,0.3,0.3,0.5,0.5,0.7s0.4,0.3,0.6,0.3c0.2,0.1,0.4,0.1,0.7,0.1v0.4h-5.3v-0.4
		c0.3,0,0.5,0,0.7-0.1c0.2,0,0.3-0.1,0.4-0.2c0.1-0.1,0.2-0.2,0.2-0.2c0-0.1,0.1-0.2,0.1-0.3c0-0.1,0-0.3-0.1-0.6s-0.2-0.5-0.3-0.8
		L140.1,182.6z M139.8,181.8l-2.3-5.5l-2.4,5.5H139.8z"/>
	<path class="st1" d="M145.9,187.1v-0.4h0.5c0.6,0,1-0.2,1.2-0.5c0.1-0.2,0.2-0.7,0.2-1.5V176c0-0.9-0.1-1.4-0.3-1.6
		c-0.3-0.3-0.6-0.4-1.2-0.4h-0.5v-0.4h5.5c2,0,3.6,0.2,4.6,0.7c1.1,0.5,1.9,1.2,2.5,2.3c0.6,1.1,1,2.3,1,3.7c0,1-0.2,1.9-0.5,2.8
		s-0.8,1.6-1.4,2.2c-0.6,0.6-1.4,1.1-2.4,1.4s-2,0.5-3.3,0.5H145.9z M149.7,186.1c0.8,0.2,1.5,0.3,2.1,0.3c0.8,0,1.5-0.1,2.1-0.4
		c0.7-0.3,1.2-0.7,1.7-1.2c0.5-0.5,0.9-1.2,1.1-1.9c0.3-0.7,0.4-1.6,0.4-2.5c0-0.9-0.1-1.8-0.4-2.5c-0.3-0.7-0.6-1.4-1.1-1.9
		c-0.5-0.5-1.1-0.9-1.7-1.2s-1.4-0.4-2.2-0.4c-0.3,0-0.6,0-1,0.1c-0.3,0-0.7,0.1-1.1,0.2V186.1z"/>
	<path class="st1" d="M174.8,173.6v0.4c-0.3,0.1-0.5,0.1-0.7,0.2c-0.2,0.1-0.4,0.2-0.5,0.4c-0.2,0.2-0.3,0.4-0.4,0.6
		c-0.1,0.2-0.2,0.5-0.4,0.8l-4.7,11.5h-0.4l-5.1-11.7c-0.3-0.6-0.4-1-0.5-1.1c-0.2-0.2-0.4-0.4-0.6-0.5c-0.2-0.1-0.6-0.2-1-0.2v-0.4
		h5.5v0.4c-0.3,0-0.6,0.1-0.8,0.1c-0.2,0.1-0.3,0.1-0.5,0.2c-0.1,0.1-0.2,0.2-0.2,0.3c0,0.1-0.1,0.2-0.1,0.3c0,0.3,0.2,0.9,0.5,1.6
		l3.4,7.9l3.2-7.8c0.3-0.8,0.5-1.3,0.5-1.6c0-0.2-0.1-0.4-0.3-0.6c-0.2-0.2-0.6-0.3-1.1-0.4v-0.4H174.8z"/>
	<path class="st1" d="M182.5,173.3c1.7,0,3.3,0.7,4.6,2c1.3,1.3,1.9,3,1.9,5c0,2.1-0.6,3.8-1.9,5.1s-2.9,2-4.7,2
		c-1.9,0-3.4-0.7-4.7-2c-1.3-1.3-1.9-3-1.9-5.1c0-2.1,0.7-3.9,2.2-5.3C179.2,173.8,180.7,173.3,182.5,173.3z M182.3,174
		c-0.7,0-1.3,0.1-1.8,0.4c-0.5,0.3-1,0.7-1.3,1.3s-0.6,1.2-0.8,2c-0.2,0.8-0.3,1.6-0.3,2.6c0,1,0.1,1.8,0.3,2.6
		c0.2,0.8,0.5,1.5,0.8,2c0.4,0.6,0.8,1,1.3,1.3c0.5,0.3,1.1,0.5,1.8,0.5c0.6,0,1.2-0.1,1.7-0.4s1-0.6,1.4-1.1
		c0.4-0.5,0.7-1.1,0.9-1.9c0.2-0.8,0.3-1.7,0.3-2.8c0-1-0.1-2-0.3-2.8c-0.2-0.8-0.5-1.5-0.8-2s-0.8-1-1.4-1.3
		C183.7,174.1,183,174,182.3,174z"/>
	<path class="st1" d="M202.1,173.3l0.3,4.6h-0.3c-0.2-0.7-0.5-1.3-0.8-1.8s-0.6-0.9-1-1.2s-0.8-0.5-1.3-0.7s-1-0.2-1.5-0.2
		c-0.9,0-1.7,0.2-2.4,0.7s-1.3,1.1-1.7,2c-0.2,0.5-0.4,1.1-0.5,1.7s-0.2,1.4-0.2,2.2c0,1.2,0.2,2.3,0.6,3.2c0.2,0.5,0.5,0.9,0.8,1.2
		s0.6,0.6,1,0.9c0.4,0.2,0.8,0.4,1.3,0.5c0.5,0.1,0.9,0.2,1.4,0.2c0.6,0,1-0.1,1.4-0.2c0.4-0.1,0.8-0.3,1.1-0.5s0.7-0.5,1-0.9
		c0.3-0.4,0.6-0.8,1-1.2l0.3,0.2c-0.3,0.6-0.7,1.1-1.1,1.6c-0.4,0.4-0.8,0.8-1.3,1.1c-0.5,0.3-1,0.5-1.5,0.6
		c-0.5,0.1-1.1,0.2-1.7,0.2c-2.2,0-4-0.8-5.2-2.5c-0.9-1.2-1.4-2.7-1.4-4.4c0-0.8,0.1-1.6,0.3-2.3c0.2-0.8,0.6-1.5,1-2.1
		c0.3-0.5,0.7-0.9,1.1-1.2c0.4-0.4,0.9-0.7,1.3-0.9c0.5-0.2,1-0.4,1.5-0.6c0.5-0.1,1.1-0.2,1.6-0.2c1,0,1.9,0.2,2.9,0.7
		c0.3,0.2,0.5,0.2,0.6,0.2c0.2,0,0.4-0.1,0.5-0.3c0.1-0.2,0.2-0.4,0.3-0.7H202.1z"/>
	<path class="st1" d="M212.7,182.6h-5.2l-0.9,2.1c-0.2,0.5-0.3,0.9-0.3,1.2c0,0.1,0,0.2,0.1,0.3c0,0.1,0.1,0.2,0.2,0.2
		c0.1,0.1,0.3,0.1,0.5,0.2c0.2,0,0.5,0.1,0.8,0.1v0.4h-4.3v-0.4c0.6-0.1,0.9-0.2,1.1-0.4c0.2-0.2,0.4-0.4,0.5-0.7
		c0.2-0.3,0.4-0.7,0.6-1.2l4.8-11.1h0.3l4.7,11.3c0.2,0.5,0.4,0.8,0.5,1.1c0.2,0.3,0.3,0.5,0.5,0.7s0.4,0.3,0.6,0.3
		c0.2,0.1,0.4,0.1,0.7,0.1v0.4h-5.3v-0.4c0.3,0,0.5,0,0.7-0.1c0.2,0,0.3-0.1,0.4-0.2s0.2-0.2,0.2-0.2s0.1-0.2,0.1-0.3
		c0-0.1,0-0.3-0.1-0.6c-0.1-0.2-0.2-0.5-0.3-0.8L212.7,182.6z M212.5,181.8l-2.3-5.5l-2.4,5.5H212.5z"/>
	<path class="st1" d="M230.4,173.3l0.3,4.6h-0.3c-0.2-0.7-0.5-1.3-0.8-1.8s-0.6-0.9-1-1.2c-0.4-0.3-0.8-0.5-1.3-0.7
		c-0.5-0.1-1-0.2-1.5-0.2c-0.9,0-1.7,0.2-2.4,0.7s-1.3,1.1-1.7,2c-0.2,0.5-0.4,1.1-0.5,1.7c-0.1,0.6-0.2,1.4-0.2,2.2
		c0,1.2,0.2,2.3,0.6,3.2c0.2,0.5,0.5,0.9,0.8,1.2c0.3,0.3,0.6,0.6,1,0.9c0.4,0.2,0.8,0.4,1.3,0.5c0.5,0.1,0.9,0.2,1.4,0.2
		c0.6,0,1-0.1,1.4-0.2c0.4-0.1,0.8-0.3,1.1-0.5c0.3-0.2,0.7-0.5,1-0.9c0.3-0.4,0.7-0.8,1-1.2l0.3,0.2c-0.3,0.6-0.7,1.1-1.1,1.6
		c-0.4,0.4-0.8,0.8-1.3,1.1c-0.5,0.3-1,0.5-1.5,0.6c-0.5,0.1-1.1,0.2-1.7,0.2c-2.2,0-4-0.8-5.2-2.5c-0.9-1.2-1.4-2.7-1.4-4.4
		c0-0.8,0.1-1.6,0.3-2.3c0.2-0.8,0.6-1.5,1-2.1c0.3-0.5,0.7-0.9,1.1-1.2c0.4-0.4,0.9-0.7,1.3-0.9c0.5-0.2,1-0.4,1.5-0.6
		c0.5-0.1,1.1-0.2,1.6-0.2c1,0,1.9,0.2,2.9,0.7c0.3,0.2,0.5,0.2,0.6,0.2c0.2,0,0.4-0.1,0.5-0.3c0.1-0.2,0.2-0.4,0.3-0.7H230.4z"/>
	<path class="st1" d="M238.1,186.7v0.4h-5.8v-0.4h0.5c0.6,0,1-0.2,1.2-0.5c0.2-0.2,0.2-0.7,0.2-1.5V176c0-0.3,0-0.6,0-0.8
		c0-0.2,0-0.4-0.1-0.5c0-0.1-0.1-0.2-0.2-0.3c-0.1-0.1-0.2-0.1-0.3-0.2c-0.3-0.2-0.6-0.2-0.9-0.2h-0.5v-0.4h5.8v0.4h-0.5
		c-0.6,0-1,0.2-1.2,0.5c-0.2,0.2-0.3,0.7-0.3,1.5v8.7c0,0.3,0,0.6,0,0.8c0,0.2,0,0.4,0.1,0.5c0,0.1,0.1,0.2,0.2,0.3
		c0.1,0.1,0.2,0.1,0.3,0.2c0.3,0.2,0.6,0.2,0.9,0.2H238.1z"/>
	<path class="st1" d="M247.9,182.6h-5.2l-0.9,2.1c-0.2,0.5-0.3,0.9-0.3,1.2c0,0.1,0,0.2,0.1,0.3c0,0.1,0.1,0.2,0.2,0.2
		c0.1,0.1,0.3,0.1,0.5,0.2c0.2,0,0.5,0.1,0.8,0.1v0.4h-4.3v-0.4c0.6-0.1,0.9-0.2,1.1-0.4c0.2-0.2,0.4-0.4,0.5-0.7
		c0.2-0.3,0.4-0.7,0.6-1.2l4.8-11.1h0.3l4.7,11.3c0.2,0.5,0.4,0.8,0.5,1.1c0.2,0.3,0.3,0.5,0.5,0.7s0.4,0.3,0.6,0.3
		c0.2,0.1,0.4,0.1,0.7,0.1v0.4h-5.3v-0.4c0.3,0,0.5,0,0.7-0.1c0.2,0,0.3-0.1,0.4-0.2s0.2-0.2,0.2-0.2s0.1-0.2,0.1-0.3
		c0-0.1,0-0.3-0.1-0.6c-0.1-0.2-0.2-0.5-0.3-0.8L247.9,182.6z M247.6,181.8l-2.3-5.5l-2.4,5.5H247.6z"/>
</g>
<rect x="3.8" y="161.6" class="st1" width="375.6" height="3.7"/>
</svg>
